<svg width="32" height="32" viewBox="0 0 32 32" fill="none" xmlns="http://www.w3.org/2000/svg">
<path d="M26 32H6C2.68604 32 0 29.314 0 26V6C0 2.68604 2.68604 0 6 0H26C29.314 0 32 2.68604 32 6V26C32 29.314 29.314 32 26 32Z" fill="white" fill-opacity="0.2"/>
<path d="M14.5 21C12.938 21 11.667 19.729 11.667 18.167V11.334H10.5C9.48901 11.334 8.66699 12.156 8.66699 13.167V22.167C8.66699 23.178 9.48901 24 10.5 24H18.833C19.844 24 20.666 23.178 20.666 22.167V21H14.5Z" fill="#FD907E"/>
<path d="M14.5 8C13.4871 8 12.667 8.82104 12.667 9.83301V18.166C12.667 19.179 13.488 19.999 14.5 19.999H21.5C22.5129 19.999 23.333 19.178 23.333 18.166V10C23.333 8.89502 22.438 8 21.333 8H14.5Z" fill="#FC573B"/>
</svg>
