<svg width="32" height="32" viewBox="0 0 32 32" fill="none" xmlns="http://www.w3.org/2000/svg">
<path d="M6 32H26C29.314 32 32 29.314 32 26V6C32 2.68604 29.314 0 26 0H6C2.68604 0 0 2.68604 0 6V26C0 29.314 2.68604 32 6 32Z" fill="white" fill-opacity="0.2"/>
<path d="M9.83301 8H16.833C17.844 8 18.666 8.82202 18.666 9.83301V11.4551C18.4509 11.3789 18.228 11.333 17.999 11.333C17.4651 11.333 16.9629 11.541 16.585 11.9189L13.918 14.5859C13.54 14.9641 13.332 15.4661 13.332 16C13.332 16.5339 13.54 17.0359 13.918 17.4141L16.585 20.0811C16.9629 20.459 17.4651 20.667 17.999 20.667C18.228 20.667 18.4509 20.6211 18.666 20.5449V22.167C18.666 23.178 17.844 24 16.833 24H9.83301C8.82202 24 8 23.178 8 22.167V9.83301C8 8.82202 8.82202 8 9.83301 8Z" fill="#FC573B"/>
<path d="M18.2549 19.283C18.5039 19.1799 18.666 18.937 18.666 18.667V16.667H23.333C23.7019 16.667 24 16.3679 24 16C24 15.6321 23.7009 15.333 23.333 15.333H18.666V13.333C18.666 13.063 18.5039 12.8201 18.2549 12.7171C18.0061 12.614 17.719 12.6709 17.5281 12.8621L14.8611 15.5291C14.6011 15.7891 14.6011 16.2109 14.8611 16.4719L17.5281 19.1389C17.719 19.3291 18.0061 19.386 18.2549 19.283Z" fill="#FD907E"/>
</svg>
