<?xml version="1.0" standalone="no"?>
<!DOCTYPE svg PUBLIC "-//W3C//DTD SVG 20010904//EN"
 "http://www.w3.org/TR/2001/REC-SVG-20010904/DTD/svg10.dtd">
<svg version="1.0" xmlns="http://www.w3.org/2000/svg"
 width="500.000000pt" height="502.000000pt" viewBox="0 0 500.000000 502.000000"
 preserveAspectRatio="xMidYMid meet">

<g transform="translate(0.000000,502.000000) scale(0.100000,-0.100000)"
fill="#000000" stroke="none">
<path d="M1670 4984 c1 -319 -6 -1364 -9 -1364 -2 0 -9 6 -15 14 -6 8 -56 71
-110 141 -146 186 -289 306 -401 336 -68 19 -179 6 -305 -35 -153 -50 -241
-66 -364 -66 -154 0 -186 -17 -186 -97 0 -35 8 -45 93 -128 51 -49 157 -137
236 -195 79 -58 214 -158 300 -223 173 -130 354 -264 390 -287 20 -14 13 -15
-81 -10 -102 5 -104 6 -153 44 l-50 39 45 -42 45 -42 -140 5 c-77 3 -277 11
-445 17 -168 7 -308 15 -313 19 -4 3 24 28 63 55 38 26 69 49 68 51 -2 1 -24
-3 -50 -8 -42 -10 -50 -9 -68 7 -17 15 -24 16 -45 7 -21 -10 -29 -9 -44 6 -30
28 -74 47 -103 44 l-28 -3 0 -189 c0 -161 2 -189 16 -194 8 -3 12 -10 9 -16
-4 -6 -11 -8 -16 -4 -6 3 -9 -37 -7 -108 3 -113 3 -113 28 -114 14 0 35 -6 47
-12 12 -7 31 -12 43 -12 19 0 21 -4 15 -29 -4 -20 -2 -30 9 -34 9 -4 18 -2 21
4 4 5 10 7 15 4 5 -3 11 -1 14 4 3 5 15 7 26 4 22 -6 26 7 9 24 -25 25 36 72
75 57 10 -4 18 1 22 11 8 19 -11 35 -36 30 -21 -4 -54 49 -47 76 7 26 -13 66
-40 78 -19 9 -21 16 -18 73 3 63 3 63 35 66 17 2 38 -2 46 -9 12 -9 14 -6 14
20 0 17 5 31 10 31 6 0 10 -12 10 -27 1 -18 10 -35 26 -47 25 -18 26 -18 16 0
-16 30 -12 76 5 70 8 -3 17 -6 19 -6 2 0 4 -8 4 -19 0 -28 67 -39 85 -14 11
15 11 19 -1 26 -8 4 -14 17 -14 29 0 21 1 21 263 14 144 -4 353 -11 464 -16
l203 -8 50 -37 c27 -20 63 -53 79 -72 28 -34 29 -38 16 -69 -24 -59 -74 -247
-91 -344 -22 -129 -15 -317 16 -415 30 -94 98 -224 165 -313 l55 -73 0 -114 0
-113 -35 -41 c-31 -39 -38 -77 -12 -68 21 7 47 -32 47 -69 0 -28 -12 -52 -54
-108 -29 -39 -79 -111 -111 -161 -31 -49 -62 -94 -69 -100 -6 -5 -17 -21 -24
-35 -6 -14 -21 -41 -32 -60 -11 -19 -20 -52 -20 -74 0 -21 -16 -80 -36 -130
-48 -125 -53 -132 -83 -147 -14 -7 -33 -18 -41 -25 -28 -21 -48 -23 -46 -6 0
9 -5 16 -12 15 -6 -2 -12 4 -12 12 0 28 -37 37 -75 19 -25 -12 -49 -15 -79
-11 -24 4 -59 2 -77 -4 -19 -6 -56 -12 -84 -15 -27 -2 -62 -6 -77 -8 -22 -3
-28 0 -28 15 0 10 -4 19 -10 19 -5 0 -10 -11 -10 -24 0 -35 -43 -67 -78 -57
-15 4 -32 6 -38 4 -7 -2 -14 8 -18 22 -8 33 -28 32 -24 -1 2 -15 -3 -29 -9
-31 -9 -3 -13 8 -13 36 0 37 -4 43 -27 40 -3 0 -10 7 -16 16 -8 15 -10 15 -30
-2 -11 -10 -17 -12 -13 -5 5 8 -1 12 -19 12 -30 0 -41 20 -26 48 8 15 8 22 -2
25 -9 4 -9 6 1 6 7 1 10 6 6 12 -5 8 3 10 25 7 32 -5 39 5 21 32 -8 13 -11 13
-19 1 -5 -7 -14 -12 -21 -9 -8 2 -5 12 9 30 23 28 27 53 11 63 -5 3 -10 24
-10 46 0 37 -1 39 -25 33 -17 -4 -25 -2 -25 7 0 10 -3 10 -11 2 -16 -16 -3
-43 21 -43 11 0 20 -7 20 -15 0 -17 -16 -20 -25 -5 -3 5 -15 10 -26 10 -10 0
-19 3 -20 8 -5 32 -9 86 -10 132 -1 41 -7 60 -22 74 l-20 20 21 9 c12 6 22 14
22 19 0 5 -4 7 -9 4 -22 -14 -37 5 -33 41 3 25 1 34 -7 29 -6 -4 -9 -11 -6
-16 3 -5 0 -12 -6 -16 -8 -4 -9 -3 -5 4 4 7 1 12 -8 12 -9 0 -15 -5 -13 -11 1
-6 -4 -13 -11 -15 -7 -1 -8 0 -4 2 15 8 2 88 -16 104 -10 9 -17 29 -16 50 1
35 5 49 30 107 14 30 10 63 -6 63 -5 0 -12 -10 -15 -21 -5 -16 -9 -18 -15 -8
-5 7 -3 21 6 33 12 18 11 23 -11 52 -13 17 -21 34 -18 38 3 3 -6 15 -20 27
-35 27 -36 65 -2 81 14 6 25 20 26 32 0 12 2 29 4 40 2 10 0 29 -5 42 -6 15
-5 24 3 28 9 3 9 5 0 5 -27 2 -12 40 25 62 29 18 33 24 19 27 -10 2 -28 -3
-40 -11 -12 -8 -36 -17 -54 -21 -17 -4 -41 -15 -52 -25 -19 -16 -19 -19 -5
-25 9 -3 20 -4 25 0 13 8 11 -10 -3 -25 -11 -11 -9 -11 9 -2 14 7 20 17 17 26
-8 19 10 20 25 1 9 -11 8 -17 -7 -28 -10 -7 -21 -21 -25 -30 -3 -10 -16 -18
-27 -18 -31 0 -47 -43 -32 -83 8 -21 9 -33 2 -35 -7 -3 -10 -264 -10 -768 l0
-764 191 1 c174 0 189 2 177 17 -11 13 -11 15 4 9 10 -3 18 -2 18 3 0 6 -4 10
-10 10 -17 0 -11 17 16 49 27 33 47 41 38 16 -9 -22 14 -18 26 4 5 11 25 24
42 30 47 14 175 34 231 35 26 0 47 4 47 8 0 4 10 8 23 8 44 -1 188 27 199 38
7 7 22 12 34 12 15 0 25 9 33 30 6 19 17 30 28 30 11 0 24 5 30 11 7 7 15 6
26 -6 13 -13 21 -14 38 -5 11 6 26 9 33 7 7 -3 23 -47 35 -99 13 -52 37 -121
55 -154 l31 -59 223 -3 c216 -2 224 -2 254 20 l31 22 -5 -22 -6 -22 984 0
c617 0 984 4 984 10 0 5 -5 21 -12 35 -9 19 -9 28 0 37 7 7 12 31 12 54 l0 42
49 4 c27 1 47 0 45 -3 -5 -9 22 -19 47 -19 13 0 17 -4 13 -11 -5 -9 6 -10 41
-5 75 12 101 27 33 20 -60 -6 -75 3 -35 22 26 12 97 7 97 -7 0 -5 4 -9 10 -9
5 0 9 6 7 13 -2 13 6 13 38 1 14 -6 12 -1 -9 17 -23 20 -26 27 -15 36 8 6 22
7 34 2 18 -7 18 -8 -5 -9 l-25 -1 23 -12 c19 -8 25 -8 32 3 7 12 15 12 42 3
18 -6 52 -17 76 -23 23 -6 42 -15 42 -20 0 -6 16 -10 35 -10 19 0 35 4 35 9 0
5 9 7 20 4 10 -3 19 -8 18 -12 -4 -34 36 -34 45 0 4 14 14 19 39 20 25 0 29 2
14 8 -18 7 -18 8 -2 14 28 11 73 8 108 -7 18 -8 55 -20 82 -27 43 -11 46 -13
27 -21 -13 -4 -28 -5 -33 -1 -6 3 -8 1 -4 -5 3 -5 0 -13 -6 -16 -7 -3 -2 -3
12 1 14 4 35 7 47 8 11 0 19 3 16 7 -2 5 2 8 11 8 8 0 16 -5 18 -11 2 -5 26
-12 53 -13 62 -4 88 -14 81 -32 -3 -9 2 -14 14 -14 20 0 20 9 20 424 0 330 -3
426 -12 430 -10 5 -10 7 0 12 10 5 12 142 12 666 -1 363 -4 667 -7 676 -6 14
-7 14 -12 -1 -4 -9 -7 13 -8 49 -1 50 -6 69 -19 79 -16 11 -16 17 -6 39 14 32
15 36 3 36 -5 0 -11 -10 -13 -22 -4 -29 -28 -35 -35 -9 -3 12 -9 21 -14 21 -5
0 -4 9 3 19 8 14 9 23 1 33 -10 13 -1 58 12 58 4 0 4 -4 1 -8 -2 -4 -1 -14 5
-22 6 -10 9 -11 9 -2 0 6 8 12 19 12 16 0 18 9 17 95 -1 61 -5 98 -13 107 -7
6 -13 16 -13 20 0 4 6 8 13 8 7 0 12 14 12 37 0 32 4 39 23 41 26 4 29 17 6
26 -15 6 -15 8 1 25 9 11 15 28 12 38 -4 16 -5 16 -6 1 -1 -15 -5 -16 -28 -7
-22 8 -30 7 -39 -5 -14 -20 -44 -21 -44 -1 0 8 -6 15 -14 15 -8 0 -21 3 -30 6
-10 4 -18 -1 -23 -12 -12 -32 -30 -44 -67 -44 l-36 0 6 43 c5 35 2 45 -15 61
-12 11 -21 29 -22 40 -1 14 -4 10 -12 -14 -10 -32 -12 -23 -18 85 -9 172 1
687 14 703 6 7 16 11 24 8 8 -4 13 2 13 17 1 19 3 18 16 -8 11 -22 13 -24 10
-7 -3 14 1 22 10 22 8 0 14 -6 14 -14 0 -15 27 -29 41 -21 4 3 4 16 -1 30 -6
16 -5 25 4 28 16 6 11 86 -9 123 -15 30 -7 44 27 44 12 0 15 5 11 16 -3 9 -13
14 -24 11 -11 -3 -19 0 -19 6 0 8 -3 8 -8 2 -12 -17 -42 -17 -48 0 -3 8 -12
15 -20 15 -8 0 -11 -6 -8 -15 4 -8 12 -15 20 -15 7 0 20 -10 28 -22 19 -27 21
-42 4 -32 -8 5 -9 2 -5 -9 3 -10 3 -17 -2 -17 -4 0 -12 -14 -17 -32 -9 -30
-10 -30 -27 -14 -9 10 -17 29 -17 43 0 14 -7 40 -16 59 -16 33 -16 36 4 57 11
12 21 25 21 30 1 4 1 10 1 15 0 4 5 -1 11 -10 15 -26 32 -22 24 5 -5 15 -4 19
3 12 5 -5 12 -19 14 -30 2 -11 13 -21 25 -23 17 -2 23 3 28 27 3 17 3 36 -1
42 -5 8 -2 10 8 7 11 -5 18 4 26 30 12 37 7 57 -7 33 -5 -7 -14 -10 -20 -7
-14 9 -53 -3 -46 -14 3 -4 -10 -17 -29 -28 -30 -18 -35 -18 -40 -5 -8 21 -8
23 9 23 17 0 35 30 35 59 0 12 5 21 10 21 7 0 7 6 1 18 -7 13 -7 22 1 30 13
13 2 32 -18 32 -8 0 -14 5 -14 10 0 6 9 10 21 10 13 0 18 4 13 12 -14 23 -13
58 3 58 13 0 13 -3 3 -15 -7 -9 -10 -18 -6 -22 3 -3 6 -1 6 6 0 7 5 9 10 6 6
-3 10 -2 10 4 0 5 10 13 22 17 26 8 48 28 48 43 0 6 5 11 10 11 6 0 10 -6 10
-14 0 -8 5 -18 10 -21 7 -4 9 5 6 27 l-5 33 14 -30 c8 -16 12 -46 10 -65 -2
-19 -2 -27 1 -17 3 9 10 15 15 12 5 -4 10 4 10 17 1 15 3 17 6 7 3 -11 11 -15
24 -12 10 3 26 0 34 -7 23 -19 22 325 -1 358 -14 20 -14 22 0 22 13 0 16 15
16 90 l0 90 -90 -1 c-49 -1 -90 -5 -90 -10 0 -5 6 -9 14 -9 17 0 38 -24 29
-33 -3 -4 -20 8 -36 25 -18 19 -32 27 -35 20 -2 -7 -8 -9 -14 -6 -6 4 -14 0
-19 -7 -8 -12 -12 -11 -23 4 -7 9 -21 17 -30 17 -12 0 -16 -10 -16 -45 0 -41
-2 -45 -25 -45 -23 0 -25 4 -25 45 0 33 -4 45 -15 45 -8 0 -16 -3 -16 -7 -8
-52 -7 -78 2 -89 15 -18 25 -838 10 -874 -5 -14 -10 -19 -10 -12 -1 6 -12 12
-26 12 -17 0 -26 -7 -30 -23 -6 -21 -11 -22 -80 -22 -41 0 -75 4 -75 8 0 5 -8
6 -18 3 -11 -4 -35 0 -55 9 -43 18 -47 18 -47 6 0 -5 9 -13 21 -16 11 -4 18
-9 15 -13 -4 -3 -20 5 -38 18 -30 22 -30 13 0 -22 8 -10 10 -18 5 -18 -34 0
-480 63 -541 76 -71 16 -96 14 -76 -6 9 -9 141 -31 272 -45 55 -6 64 -10 77
-35 17 -33 38 -50 28 -23 -3 10 -10 24 -16 31 -7 9 -4 12 12 12 12 0 20 -4 17
-9 -3 -5 3 -11 14 -14 10 -3 20 -1 22 5 2 6 34 6 88 -1 132 -17 151 -21 145
-32 -4 -5 -2 -9 4 -9 5 0 11 4 13 10 2 6 43 4 113 -5 61 -8 124 -15 140 -15
l30 0 0 -428 c0 -351 -3 -431 -14 -452 -17 -29 -33 -92 -35 -136 -1 -31 -2
-32 -28 -18 -15 8 -34 14 -43 14 -9 0 -32 12 -51 26 -42 32 -45 14 -4 -23 17
-14 30 -33 29 -42 0 -14 -1 -14 -7 -1 -4 8 -12 16 -17 17 -12 2 -12 -53 0 -80
10 -24 -22 -60 -49 -53 -13 3 -16 2 -8 -6 6 -6 8 -17 5 -24 -8 -21 11 -17 25
6 16 26 36 26 29 0 -3 -11 3 -30 14 -44 10 -13 19 -32 18 -43 0 -10 -3 -13 -6
-5 -5 14 -43 17 -43 3 0 -5 7 -14 15 -21 8 -7 15 -19 15 -26 0 -8 4 -14 8 -14
16 0 82 -68 82 -85 0 -9 -13 -22 -30 -28 -16 -6 -30 -15 -30 -19 0 -4 -20 -16
-45 -27 -25 -11 -45 -25 -45 -30 0 -6 -11 -13 -25 -17 -23 -6 -52 -39 -47 -56
1 -3 -6 -12 -15 -20 -15 -11 -16 -11 -10 4 5 14 1 17 -18 16 -29 -3 -30 -4
-10 -25 11 -10 14 -26 10 -51 -3 -21 -2 -31 1 -24 3 6 10 9 15 6 6 -3 4 -11
-5 -17 -18 -14 -11 -58 7 -51 19 6 35 -9 38 -36 5 -32 34 -61 54 -54 17 7 19
-4 6 -24 -7 -11 -15 -11 -50 1 -38 12 -47 12 -77 -2 -27 -12 -31 -17 -19 -24
22 -12 18 -53 -6 -70 -15 -11 -17 -16 -7 -20 7 -3 -6 -6 -29 -6 -23 -1 -44 3
-47 8 -3 5 -17 11 -31 13 -22 5 -23 3 -13 -10 11 -13 10 -14 -10 -3 -26 14
-77 7 -67 -9 3 -6 0 -10 -8 -10 -26 0 -27 28 -3 83 84 189 98 402 41 596 l-16
53 -25 -33 c-31 -43 -79 -69 -124 -69 -40 0 -174 53 -237 93 -24 15 -60 53
-80 84 -35 52 -38 62 -38 129 0 66 3 75 31 111 17 21 53 52 79 68 43 27 57 30
129 30 58 0 94 -5 122 -18 l41 -19 39 37 c52 48 270 225 314 255 30 19 32 20
15 3 -43 -45 -263 -238 -307 -272 -29 -21 -44 -39 -39 -44 8 -8 38 12 144 99
10 8 84 75 165 148 232 210 263 249 248 309 -7 31 -36 43 -170 71 -130 28
-181 51 -251 114 -57 51 -81 62 -133 62 -67 0 -137 -46 -241 -159 -53 -58
-143 -154 -201 -214 l-106 -108 -47 20 -47 20 0 216 c0 137 -4 215 -10 215 -6
0 -10 -77 -10 -210 0 -115 -3 -210 -7 -210 -5 0 -48 12 -98 25 -123 35 -318
56 -510 57 -136 0 -181 -4 -300 -27 -77 -15 -152 -30 -167 -32 l-28 -5 0 63
c0 48 3 60 11 49 8 -12 9 -7 6 17 -2 18 -1 31 1 28 9 -8 32 17 31 34 0 10 -4
7 -10 -8 -5 -13 -12 -21 -15 -18 -3 3 0 15 6 27 14 26 10 169 -5 167 -5 -1 -9
4 -8 10 2 7 0 12 -5 11 -4 -1 -24 2 -45 7 -33 6 -42 4 -60 -14 -31 -31 -32
-165 -2 -208 17 -24 19 -41 17 -110 l-4 -83 -40 -11 c-35 -9 -48 -7 -90 10
-71 30 -183 106 -256 176 l-63 60 -4 713 c-2 393 -6 717 -9 720 -3 3 -6 -12
-6 -34z m3037 -158 c-6 -17 -27 -18 -33 -2 -3 9 -3 24 1 34 6 16 7 16 21 -3 8
-10 13 -24 11 -29z m73 -96 c0 -5 -5 -10 -11 -10 -5 0 -7 5 -4 10 3 6 8 10 11
10 2 0 4 -4 4 -10z m15 -48 c-8 -2 -15 -8 -15 -13 0 -14 -14 -11 -36 7 -15 12
-15 15 -2 10 9 -2 19 2 22 10 5 12 9 12 26 2 16 -10 18 -14 5 -16z m-34 -39
c13 -16 12 -17 -3 -4 -10 7 -18 15 -18 17 0 8 8 3 21 -13z m17 -75 c-5 -15
-23 -11 -26 6 -2 11 2 14 13 10 9 -4 14 -11 13 -16z m138 -65 c-11 -11 -19 6
-11 24 8 17 8 17 12 0 3 -10 2 -21 -1 -24z m-136 17 c0 -5 -5 -10 -11 -10 -5
0 -7 5 -4 10 3 6 8 10 11 10 2 0 4 -4 4 -10z m-93 -232 c0 -7 2 -18 4 -24 2
-7 0 -13 -6 -13 -5 -1 -11 10 -13 24 -2 14 1 25 6 25 5 0 9 -6 9 -12z m118
-59 c11 -17 -1 -21 -15 -4 -8 9 -8 15 -2 15 6 0 14 -5 17 -11z m-22 -84 c-5
-13 -23 -22 -23 -11 0 15 14 35 21 31 4 -3 6 -12 2 -20z m-3631 -76 c130 -44
229 -127 403 -344 121 -151 227 -257 318 -320 32 -23 56 -46 54 -55 -5 -31
-45 -38 -200 -33 -254 7 -371 34 -461 108 -29 23 -73 55 -97 71 -24 16 -47 33
-51 39 -5 6 -8 6 -8 0 0 -9 77 -125 90 -135 11 -9 60 -84 60 -92 0 -21 -37 -1
-140 75 -62 45 -149 112 -192 149 -73 62 -129 90 -178 91 -40 0 -109 88 -108
137 1 17 8 35 17 40 13 7 14 11 4 21 -20 20 -15 39 9 39 20 0 19 3 -12 30 -41
35 -34 44 40 54 39 5 55 2 84 -15 42 -24 39 -36 -9 -45 -38 -7 -48 -24 -14
-24 26 0 234 -47 274 -62 17 -6 121 -71 232 -145 111 -73 231 -147 267 -164
103 -48 216 -74 216 -49 0 6 -33 47 -73 93 -40 45 -102 120 -137 167 -84 112
-181 212 -256 266 -155 111 -249 124 -440 62 -60 -20 -133 -48 -162 -62 -53
-27 -125 -35 -137 -15 -10 16 -1 21 72 40 427 112 433 113 535 78z m3452 -44
c6 -17 -2 -45 -14 -45 -15 0 -32 30 -26 45 7 19 32 19 40 0z m-3439 -23 c62
-30 168 -123 148 -129 -7 -3 -46 7 -87 21 -41 15 -92 25 -113 24 -54 -2 -113
12 -113 28 0 7 10 24 23 36 13 13 22 29 19 36 -7 22 61 13 123 -16z m3595 -42
c0 -5 -2 -10 -4 -10 -3 0 -8 5 -11 10 -3 6 -1 10 4 10 6 0 11 -4 11 -10z
m-4339 -112 c46 -71 99 -113 361 -289 131 -87 276 -188 324 -224 48 -36 88
-64 90 -62 4 4 -136 117 -223 181 -29 21 -53 40 -53 42 0 12 333 -242 365
-279 6 -6 2 -5 -8 2 -9 8 -20 12 -22 9 -13 -12 226 -180 315 -221 77 -36 91
-46 75 -53 -34 -14 -194 80 -399 235 -105 80 -303 223 -441 320 -341 238 -419
303 -463 388 -36 67 31 26 79 -49z m1730 -102 c-10 -12 -6 -14 28 -12 24 2 45
-2 51 -9 6 -8 10 -47 8 -92 l-3 -78 -35 0 c-22 0 -34 -4 -33 -12 2 -7 -4 -10
-13 -6 -8 3 -13 12 -10 20 3 8 2 12 -3 9 -14 -9 -21 21 -21 90 0 66 12 104 32
104 7 0 7 -5 -1 -14z m1834 -4 c-6 -4 -36 -28 -69 -52 -32 -24 -101 -91 -155
-148 -106 -116 -194 -202 -219 -216 -33 -19 30 54 190 217 116 118 176 172
208 187 49 21 59 24 45 12z m103 -27 c28 -20 76 -101 67 -115 -4 -6 -14 -10
-23 -9 -20 3 -135 -33 -176 -54 -41 -22 -86 0 -86 42 0 15 -4 19 -17 14 -24
-9 28 53 71 86 67 50 124 63 164 36z m278 -128 c16 -8 37 -24 48 -35 18 -21
18 -21 -15 -41 -25 -15 -51 -21 -97 -21 -69 0 -192 -22 -244 -45 -18 -7 -78
-59 -132 -114 -95 -97 -136 -122 -136 -83 0 9 9 23 19 29 10 7 41 40 67 75 96
125 146 178 181 187 18 5 66 7 106 4 49 -4 81 -1 96 7 l23 12 -43 44 -43 44
70 -24 c39 -13 83 -30 100 -39z m164 -78 c0 -28 -25 -63 -68 -96 l-37 -28 22
29 c13 16 28 47 34 70 15 56 49 74 49 25z m-3629 4 c13 -16 12 -17 -3 -4 -10
7 -18 15 -18 17 0 8 8 3 21 -13z m1307 -75 c-3 -70 -4 -73 -28 -73 -23 0 -25
4 -28 53 -2 28 1 52 6 52 5 0 12 9 15 20 3 11 12 20 22 20 13 0 15 -11 13 -72z
m2022 -154 c-121 -123 -199 -186 -223 -178 -38 11 -39 20 -6 88 35 73 44 81
104 89 59 8 102 23 131 46 15 12 34 21 43 21 9 0 -10 -26 -49 -66z m-4120 -70
c13 -33 13 -39 -2 -26 -7 5 -27 13 -45 17 -40 8 -34 35 8 35 22 0 32 -6 39
-26z m2728 -149 c65 -35 117 -91 149 -161 22 -49 27 -53 67 -59 28 -5 62 -1
101 11 49 14 83 16 190 11 182 -9 173 -4 173 -90 0 -89 20 -147 73 -209 l40
-48 -28 -11 c-15 -6 -62 -18 -103 -26 -65 -14 -93 -14 -213 -3 l-137 12 -88
-40 c-85 -40 -90 -41 -227 -46 -165 -7 -250 -23 -333 -65 -105 -53 -188 -35
-234 49 -16 28 -18 49 -15 105 7 97 29 162 76 218 l39 47 16 -53 c63 -216 320
-307 491 -173 19 15 18 15 -13 5 -46 -16 -110 -5 -195 32 -148 64 -232 158
-244 273 -12 112 44 191 172 243 18 8 63 11 110 10 66 -3 90 -8 133 -32z
m-2448 -11 c0 -14 -3 -15 -17 -3 -10 7 -20 15 -22 16 -2 2 5 3 17 3 14 0 22
-6 22 -16z m4317 -68 c-4 -9 -11 -16 -17 -16 -15 0 -24 26 -16 47 6 15 8 15
23 1 9 -9 13 -24 10 -32z m-17 -146 c0 -68 -1 -70 -25 -70 -24 0 -25 2 -25 70
0 68 1 70 25 70 24 0 25 -2 25 -70z m-4525 50 c3 -5 -1 -10 -9 -10 -8 0 -18 5
-21 10 -3 6 1 10 9 10 8 0 18 -4 21 -10z m4699 -21 c-3 -5 0 -9 5 -9 6 0 11
-8 11 -17 0 -14 2 -15 9 -5 6 10 10 9 14 -7 3 -14 0 -21 -9 -21 -12 0 -12 -4
-4 -20 9 -16 7 -24 -5 -36 -16 -16 -21 -36 -7 -31 4 1 7 -2 7 -8 0 -5 -3 -9
-8 -7 -4 1 -5 -9 -1 -22 3 -13 1 -27 -5 -30 -14 -9 -14 -51 -1 -77 6 -10 7
-19 2 -19 -5 0 -12 -20 -14 -44 -3 -25 -13 -53 -23 -62 -13 -14 -16 -29 -13
-66 3 -27 1 -51 -3 -54 -5 -3 -9 -16 -9 -30 0 -14 -6 -27 -13 -30 -8 -3 -14
-17 -14 -32 0 -41 -33 -104 -51 -97 -12 4 -13 3 -2 -10 15 -18 1 -19 -22 -1
-18 14 -25 32 -9 21 5 -3 13 24 16 60 7 63 8 65 34 60 23 -5 24 -5 4 4 -24 11
-38 44 -27 63 6 9 3 9 -9 -1 -21 -17 -22 -3 -3 44 14 32 15 123 2 143 -12 20
-17 134 -6 147 13 16 15 55 6 112 -9 51 6 86 35 78 10 -3 29 -8 40 -11 16 -5
19 -3 14 7 -6 9 -4 11 8 6 9 -3 18 0 21 8 3 8 12 12 21 9 8 -3 12 -10 9 -15z
m-304 -19 c0 -5 -2 -10 -4 -10 -3 0 -8 5 -11 10 -3 6 -1 10 4 10 6 0 11 -4 11
-10z m365 -200 c3 -5 3 -15 -1 -21 -6 -11 -23 6 -24 24 0 10 18 9 25 -3z
m-395 -34 c0 -2 -7 -7 -16 -10 -8 -3 -12 -2 -9 4 6 10 25 14 25 6z m45 -176
c3 -5 1 -10 -4 -10 -6 0 -11 5 -11 10 0 6 2 10 4 10 3 0 8 -4 11 -10z m-50
-20 c-3 -5 -11 -10 -16 -10 -6 0 -7 5 -4 10 3 6 11 10 16 10 6 0 7 -4 4 -10z
m-75 -40 c-8 -5 -17 -7 -19 -4 -3 3 1 9 9 14 8 5 17 7 19 4 3 -3 -1 -9 -9 -14z
m-46 -94 c-3 -9 -10 -16 -15 -16 -6 0 -5 9 1 21 13 24 24 20 14 -5z m-788 0
c10 -8 16 -17 13 -20 -11 -11 -242 -28 -484 -35 -185 -6 -270 -12 -327 -26
-84 -19 -133 -14 -88 10 50 26 146 52 200 53 30 1 66 5 80 8 14 3 142 10 285
13 143 4 269 8 281 9 11 1 29 -4 40 -12z m789 -35 c3 -5 1 -12 -5 -16 -5 -3
-10 1 -10 9 0 18 6 21 15 7z m-55 -11 c0 -5 -9 -10 -20 -10 -11 0 -20 5 -20
10 0 6 9 10 20 10 11 0 20 -4 20 -10z m-642 -54 l42 -18 0 -67 c0 -58 3 -71
23 -90 17 -15 34 -21 58 -19 33 3 34 2 31 -32 -1 -19 2 -45 9 -57 18 -34 2
-71 -56 -129 -58 -58 -75 -64 -118 -35 l-28 18 45 39 c50 42 59 76 27 94 -27
14 -27 14 -41 -20 -7 -17 -33 -48 -58 -70 -51 -46 -48 -62 19 -80 40 -11 50
-24 24 -34 -17 -6 -40 12 -186 146 -59 53 -104 99 -101 102 3 3 -4 6 -16 6
-17 0 -22 6 -23 28 l-1 27 -7 -25 c-4 -14 -3 -31 2 -37 7 -9 5 -13 -6 -13 -9
0 -19 5 -22 10 -9 15 -33 12 -37 -3 -2 -11 -12 -12 -48 -3 -34 8 -46 17 -52
36 -6 20 -7 17 -5 -12 2 -21 -1 -38 -6 -38 -4 0 -5 -4 -2 -10 3 -5 14 -10 24
-10 10 0 61 -47 114 -104 l97 -104 -36 -7 c-25 -4 -34 -10 -30 -21 11 -28 -2
-12 -64 79 -35 50 -78 113 -96 138 -19 25 -31 49 -27 53 3 3 -1 6 -10 6 -9 0
-19 -5 -23 -11 -3 -6 -20 -9 -38 -6 -44 7 -129 -6 -133 -20 -3 -7 5 -11 19
-11 13 1 36 1 51 0 28 -2 28 -3 21 -47 -7 -50 8 -63 23 -18 9 26 11 24 42 -42
53 -114 55 -111 -74 -106 -89 3 -125 9 -187 31 -105 38 -198 104 -229 163 -9
15 -3 17 56 17 55 0 65 -3 66 -17 0 -13 3 -12 10 6 8 20 13 22 37 15 27 -8
142 -7 151 2 3 2 -2 12 -11 20 -16 16 -118 26 -118 12 0 -5 -4 -8 -10 -8 -5 0
-10 12 -10 28 0 21 2 24 10 12 6 -10 7 26 3 100 l-6 116 49 13 c29 7 174 16
363 21 173 6 315 11 317 13 8 8 145 -12 182 -27z m922 -190 c0 -49 -4 -65 -16
-70 -27 -10 -34 3 -34 70 0 62 1 64 25 64 24 0 25 -2 25 -64z m-206 -1 c-4 -8
-8 -15 -10 -15 -2 0 -4 7 -4 15 0 8 4 15 10 15 5 0 7 -7 4 -15z m566 -41 c0
-8 -4 -12 -10 -9 -5 3 -10 10 -10 16 0 5 5 9 10 9 6 0 10 -7 10 -16z m-1856
-100 c-6 -34 -8 -36 -20 -19 -19 26 -17 53 4 57 24 6 24 5 16 -38z m176 21 c0
-29 -8 -32 -26 -7 -19 24 -17 32 6 32 15 0 20 -7 20 -25z m165 -52 c47 -43 85
-81 85 -85 0 -3 -10 -10 -22 -14 -19 -6 -32 4 -81 57 -32 35 -67 76 -78 92
-40 54 8 29 96 -50z m805 60 c0 -4 -12 -21 -27 -37 -16 -17 -19 -23 -7 -13 11
9 26 17 32 17 7 0 12 6 12 13 0 9 3 8 9 -2 6 -9 11 -10 15 -2 4 6 12 9 17 6 5
-4 9 1 9 9 0 21 6 20 30 -4 11 -11 27 -20 35 -20 8 0 15 -4 15 -10 0 -5 6 -10
13 -10 8 0 13 -15 14 -40 1 -27 -2 -38 -9 -34 -6 4 -9 1 -6 -7 3 -8 11 -14 18
-14 16 0 25 -17 38 -75 7 -27 7 -46 1 -48 -5 -2 -9 -12 -9 -23 0 -10 -6 -18
-12 -17 -7 2 -14 -9 -16 -24 -2 -18 -8 -25 -17 -22 -7 3 -16 1 -20 -5 -3 -6 2
-11 12 -11 14 -1 12 -6 -12 -28 -17 -16 -37 -44 -45 -63 -7 -18 -17 -38 -21
-43 -4 -4 -3 -22 2 -39 6 -21 5 -44 -2 -65 -6 -18 -8 -39 -5 -47 3 -8 1 -17
-4 -20 -6 -4 -10 -16 -10 -29 0 -37 -10 -37 -42 -1 -16 19 -39 37 -51 41 -12
4 -32 15 -45 25 -13 10 -30 15 -38 12 -19 -7 -69 38 -53 48 7 4 0 13 -19 25
-17 9 -33 27 -36 38 -5 18 -8 19 -16 6 -14 -21 -13 5 1 32 8 14 8 23 0 31 -7
7 -12 -2 -17 -31 -6 -38 -8 -41 -27 -30 -12 6 -32 21 -46 34 -22 20 -24 30
-22 83 3 64 -9 96 -43 123 -21 17 -21 17 -2 52 11 20 23 36 28 36 4 0 7 3 6 8
-1 4 11 33 27 64 l29 57 55 3 c74 4 83 28 10 28 -87 0 -45 13 64 20 154 10
187 11 187 3z m-842 -131 c36 -43 39 -49 20 -45 -13 3 -44 26 -70 51 -37 36
-48 53 -48 77 l1 30 27 -31 c15 -17 46 -54 70 -82z m1162 83 c0 -16 -6 -25
-15 -25 -9 0 -15 9 -15 25 0 16 6 25 15 25 9 0 15 -9 15 -25z m-1370 -74 l60
-90 -29 -6 c-23 -5 -35 0 -59 22 -16 15 -37 43 -46 61 -14 28 -15 38 -4 67 6
19 13 35 15 35 1 0 29 -40 63 -89z m1300 28 c0 -21 2 -24 21 -31 10 -4 18 -15
18 -25 -1 -17 -2 -17 -6 0 -5 19 -19 23 -25 5 -6 -18 -27 0 -43 39 -21 49 -19
56 10 37 14 -9 25 -20 25 -25z m-1945 -20 c153 -127 367 -174 675 -150 85 7
185 18 223 25 37 8 67 10 67 5 0 -8 -53 -20 -170 -39 -36 -6 -168 -13 -295
-17 -196 -5 -240 -3 -295 11 -153 39 -296 139 -276 192 8 21 17 18 71 -27z
m1905 -9 c0 -5 -2 -10 -4 -10 -3 0 -8 5 -11 10 -3 6 -1 10 4 10 6 0 11 -4 11
-10z m-4383 -111 c-8 -24 -20 -45 -26 -47 -19 -6 -24 28 -7 47 9 10 13 21 9
24 -3 4 1 7 10 7 10 0 17 5 17 12 0 6 3 9 6 6 3 -4 -1 -25 -9 -49z m3521 24
c-10 -2 -26 -2 -35 0 -10 3 -2 5 17 5 19 0 27 -2 18 -5z m-1878 -107 c0 -4 -7
-5 -16 -2 -9 4 -23 1 -30 -5 -12 -9 -14 -1 -14 47 l0 59 30 -45 c16 -25 30
-49 30 -54z m1843 87 c-7 -2 -13 -12 -13 -20 0 -9 -3 -14 -6 -10 -10 10 4 37
18 36 10 0 10 -2 1 -6z m952 -93 c-9 -14 -25 5 -25 30 0 12 3 12 16 -2 9 -9
13 -21 9 -28z m-683 13 c23 -20 23 -33 1 -33 -28 0 -47 16 -40 34 8 20 16 20
39 -1z m1050 5 c6 -18 -15 -69 -27 -65 -5 2 -11 20 -13 40 -3 31 0 37 17 37
10 0 21 -6 23 -12z m-392 -32 c0 -3 -6 -5 -12 -3 -7 1 -12 -4 -10 -11 1 -8 -2
-11 -7 -8 -5 3 -8 14 -6 24 2 9 4 21 4 25 1 9 31 -18 31 -27z m257 20 c-9 -22
5 -28 19 -8 10 13 17 15 30 6 27 -16 28 -32 2 -36 -19 -3 -24 -11 -31 -58 -11
-72 -15 -83 -28 -74 -8 4 -7 9 2 15 8 5 9 9 4 9 -6 0 -12 16 -13 35 -2 19 2
35 8 35 5 0 10 7 10 16 0 11 -5 14 -16 10 -13 -5 -15 -2 -11 14 3 11 0 20 -6
20 -7 0 -3 7 7 15 25 19 30 19 23 1z m-3037 -103 c0 -7 -8 -13 -17 -13 -13 0
-14 3 -6 11 6 6 9 19 6 28 -4 14 -3 14 6 1 6 -8 11 -21 11 -27z m26 -19 c-4
-9 -9 -15 -11 -12 -3 3 -3 13 1 22 4 9 9 15 11 12 3 -3 3 -13 -1 -22z m2074
-26 c0 -4 -9 -8 -21 -8 -15 0 -19 4 -15 16 3 9 6 21 6 27 1 13 30 -22 30 -35z
m68 3 c27 -24 28 -31 2 -24 -11 3 -25 14 -31 24 -12 24 0 24 29 0z m-2197 -48
c-9 -17 -10 -17 -17 1 -4 11 -2 21 7 27 18 11 24 -5 10 -28z m3096 5 c-3 -8
-6 -5 -6 6 -1 11 2 17 5 13 3 -3 4 -12 1 -19z m-926 -46 c8 -20 6 -23 -12 -20
-12 2 -26 13 -30 26 -8 20 -6 23 12 20 12 -2 26 -13 30 -26z m87 0 c17 -23 15
-42 -6 -42 -25 0 -42 19 -42 47 0 17 4 21 18 16 9 -3 23 -13 30 -21z m107 -53
c-9 -13 -46 3 -62 27 -26 40 -4 49 33 13 18 -18 31 -36 29 -40z m-277 44 c-2
-9 -8 -18 -15 -20 -7 -3 -9 3 -6 16 6 25 26 28 21 4z m-1563 -35 c65 -32 80
-48 48 -48 -12 -1 -7 -6 12 -15 46 -21 17 -18 -40 5 -27 10 -44 19 -36 20 8 0
12 3 8 6 -3 3 -12 2 -19 -2 -22 -14 -36 -13 -42 3 -5 11 -2 14 11 9 17 -6 17
-5 1 8 -16 12 -25 46 -13 46 2 0 34 -14 70 -32z m-150 -39 c4 -12 2 -26 -4
-32 -6 -6 -11 -8 -11 -4 0 4 -8 3 -19 -2 -15 -8 -20 -6 -30 15 -15 33 -14 33
9 29 11 -2 20 0 20 6 0 18 29 9 35 -12z m383 2 c86 -23 132 -54 132 -91 0 -8
-9 -1 -19 16 -21 34 -47 47 -140 68 -55 13 -69 13 -98 1 -18 -8 -33 -12 -33
-9 0 6 61 33 75 33 6 1 43 -8 83 -18z m1235 -21 c3 -11 1 -18 -4 -14 -5 3 -9
12 -9 20 0 20 7 17 13 -6z m125 -14 c-4 -29 -22 -23 -26 9 -3 19 0 24 13 19 9
-4 15 -15 13 -28z m82 -2 c0 -17 -5 -24 -20 -24 -15 0 -19 6 -17 23 4 43 37
45 37 1z m76 28 c16 -10 27 -49 16 -56 -16 -10 -50 6 -56 27 -8 33 12 48 40
29z m-222 -24 c7 -27 -9 -47 -25 -31 -12 12 -3 53 11 53 4 0 10 -10 14 -22z
m328 10 c20 -16 28 -53 11 -52 -7 1 -19 2 -26 3 -15 1 -39 46 -30 55 10 10 28
7 45 -6z m-1665 -43 c48 -25 93 -45 100 -45 7 0 13 -11 13 -24 0 -14 5 -28 10
-31 6 -4 8 -10 5 -15 -3 -5 -43 7 -88 27 -45 19 -92 37 -105 40 -12 3 -25 10
-29 16 -3 5 -1 7 4 4 6 -4 16 0 23 7 9 12 7 19 -9 35 -20 20 -26 31 -16 31 2
0 44 -20 92 -45z m-509 15 c-7 -11 -19 -22 -28 -25 -8 -4 -4 5 9 19 29 31 36
33 19 6z m2279 -2 c29 -27 29 -38 -1 -38 -24 0 -38 12 -49 43 -9 25 21 22 50
-5z m-2243 -28 c-5 -5 -22 -12 -39 -16 l-30 -7 30 32 c25 27 30 29 38 15 5 -9
5 -20 1 -24z m2894 -17 c-5 -7 -7 -17 -3 -23 3 -5 -1 -10 -9 -10 -14 0 -20
-12 -17 -32 0 -5 -3 -8 -9 -8 -13 0 -13 27 1 35 6 4 8 13 5 21 -3 8 -1 14 5
14 6 0 8 7 5 17 -4 9 -1 20 6 24 16 10 29 -21 16 -38z m-2596 24 c7 4 9 -2 6
-15 -4 -14 -2 -20 4 -16 6 4 9 1 6 -7 -5 -16 -50 -19 -60 -4 -14 18 -8 43 10
47 9 2 19 0 20 -4 2 -5 9 -5 14 -1z m2026 -9 c16 -16 15 -29 -2 -22 -16 6 -30
34 -18 34 5 0 13 -5 20 -12z m-2152 -46 c4 -24 1 -31 -18 -36 -34 -9 -35 -8
-47 24 -8 25 -7 32 4 37 9 3 22 -1 31 -8 8 -7 14 -8 13 -3 -1 5 -1 13 0 18 2
17 12 -2 17 -32z m1209 31 c-60 -4 -79 -13 -95 -43 -8 -15 -2 -16 83 -4 50 7
93 11 95 9 11 -10 -15 -26 -64 -41 -29 -8 -54 -20 -54 -25 0 -5 -14 0 -32 11
-24 15 -34 16 -40 7 -5 -8 -8 -5 -8 8 0 21 25 64 44 77 6 4 38 7 71 6 l60 -2
-60 -3z m280 -13 c10 -11 15 -20 12 -20 -4 0 -16 9 -27 20 -11 11 -16 20 -12
20 5 0 17 -9 27 -20z m295 -30 c0 -20 -5 -30 -15 -30 -18 0 -30 24 -21 45 10
28 36 17 36 -15z m-70 -10 c0 -32 -14 -40 -24 -15 -6 18 2 45 15 45 5 0 9 -13
9 -30z m174 14 c9 -22 -1 -34 -30 -34 -19 0 -24 5 -24 25 0 20 5 25 24 25 13
0 27 -7 30 -16z m-2014 -13 c17 -32 12 -48 -17 -56 -20 -5 -31 -2 -40 11 -19
26 -16 39 10 52 31 15 35 14 47 -7z m720 9 c13 -9 13 -10 0 -9 -8 0 -24 4 -35
9 l-20 9 20 0 c11 0 27 -4 35 -9z m1410 -20 c0 -44 -40 -38 -54 8 -7 19 -4 22
23 22 28 0 31 -3 31 -30z m-397 -29 c-9 -12 -25 20 -18 36 7 16 9 15 15 -7 4
-14 5 -27 3 -29z m497 42 c0 -5 3 -17 6 -28 4 -16 0 -21 -20 -23 -14 -1 -26 2
-26 6 0 4 -3 17 -6 30 -5 19 -2 22 20 22 14 0 26 -3 26 -7z m-1521 -17 c73
-20 74 -26 3 -23 -34 1 -56 4 -49 6 6 2 -4 10 -23 17 -31 11 -32 13 -10 13 14
0 49 -6 79 -13z m58 8 c-3 -3 -12 -4 -19 -1 -8 3 -5 6 6 6 11 1 17 -2 13 -5z
m1010 -16 c-3 -8 -6 -5 -6 6 -1 11 2 17 5 13 3 -3 4 -12 1 -19z m-957 2 c18
-12 2 -12 -25 0 -13 6 -15 9 -5 9 8 0 22 -4 30 -9z m357 4 c-3 -3 -12 -4 -19
-1 -8 3 -5 6 6 6 11 1 17 -2 13 -5z m493 -3 c0 -5 3 -16 6 -24 3 -8 -2 -17
-10 -20 -10 -4 -18 4 -25 24 -9 26 -8 29 10 29 10 0 19 -4 19 -9z m641 -38
c-9 -16 -10 -15 -11 8 0 14 3 29 8 33 12 12 14 -22 3 -41z m-1920 22 c7 18 8
18 8 -5 0 -14 -4 -32 -9 -40 -8 -13 -10 -12 -10 3 0 11 -4 15 -12 11 -8 -5 -9
-2 -5 10 4 10 8 23 8 29 1 7 4 3 7 -8 l5 -20 8 20z m18 -49 c-9 -8 -10 -7 -5
7 3 10 7 28 7 40 2 16 3 14 6 -7 3 -16 -1 -34 -8 -40z m578 56 c6 -4 9 -19 6
-35 -5 -24 -9 -27 -48 -27 -34 0 -46 5 -59 25 -9 13 -16 26 -16 29 0 11 100
19 117 8z m136 1 c-7 -2 -19 -2 -25 0 -7 3 -2 5 12 5 14 0 19 -2 13 -5z m475
-22 c6 -39 -14 -47 -32 -13 -8 16 -12 32 -9 36 14 14 38 0 41 -23z m-1058 4
c17 -9 30 -18 30 -20 0 -8 -25 -1 -32 10 -5 6 -8 5 -8 -2 0 -7 -7 -13 -15 -13
-8 0 -15 9 -15 20 0 24 3 24 40 5z m2263 0 c-3 -9 -8 -14 -10 -11 -3 3 -2 9 2
15 9 16 15 13 8 -4z m-2925 -7 c22 -22 14 -46 -19 -53 -45 -10 -69 32 -31 54
23 14 36 13 50 -1z m402 -8 c0 -11 5 -20 10 -20 6 0 10 -4 10 -10 0 -14 -11
-12 -34 5 -11 8 -16 21 -13 30 9 22 27 19 27 -5z m345 10 c13 -6 15 -9 5 -9
-8 0 -22 4 -30 9 -18 12 -2 12 25 0z m483 4 c64 10 92 5 92 -18 0 -11 -17 -15
-65 -18 -39 -2 -65 1 -65 7 0 6 -4 4 -8 -3 -6 -9 -12 -5 -21 15 -7 16 -8 24
-2 17 8 -7 30 -7 69 0z m406 -10 c11 -28 6 -45 -11 -42 -18 3 -31 22 -32 46
-1 18 36 15 43 -4z m1174 -46 c-3 -57 -5 -63 -25 -66 -22 -3 -23 0 -23 56 0
64 4 72 32 72 17 0 19 -7 16 -62z m-2450 40 c-3 -7 5 -20 16 -30 18 -15 19
-17 4 -18 -19 0 -38 28 -31 48 6 16 16 16 11 0z m1105 5 c-7 -2 -19 -2 -25 0
-7 3 -2 5 12 5 14 0 19 -2 13 -5z m77 -10 c0 -5 3 -18 6 -30 5 -17 2 -23 -10
-23 -10 0 -13 6 -9 18 5 14 3 13 -10 -3 -14 -17 -16 -18 -17 -3 0 9 -3 23 -6
32 -5 12 0 16 20 16 14 0 26 -3 26 -7z m-1257 -30 c6 -33 8 -30 -25 -38 -23
-6 -28 -3 -34 18 -8 33 1 47 30 47 18 0 25 -7 29 -27z m1157 3 c0 -8 3 -23 6
-33 5 -15 4 -15 -5 -3 -7 10 -11 11 -11 3 0 -7 -7 -13 -16 -13 -8 0 -12 5 -9
10 3 6 1 10 -4 10 -6 0 -11 9 -11 20 0 15 7 20 25 20 15 0 25 -6 25 -14z m577
0 c-14 -11 -15 -15 -5 -19 8 -4 7 -6 -4 -6 -12 -1 -18 6 -18 19 0 14 7 20 23
20 21 -1 21 -1 4 -14z m-687 -25 c0 -17 -4 -33 -10 -36 -5 -3 -10 2 -10 12 0
15 -2 16 -10 3 -8 -13 -10 -13 -10 2 0 9 -3 23 -6 32 -5 12 0 16 20 16 22 0
26 -4 26 -29z m630 4 c0 -14 -4 -25 -10 -25 -5 0 -10 11 -10 25 0 14 5 25 10
25 6 0 10 -11 10 -25z m-1789 -12 c12 -33 7 -49 -20 -56 -16 -4 -24 2 -36 26
-19 38 -19 36 8 47 33 13 37 12 48 -17z m1049 9 c0 -10 -7 -27 -15 -38 -14
-19 -14 -19 -15 1 0 17 -2 17 -10 5 -5 -8 -10 -10 -10 -5 0 6 -3 19 -6 30 -4
17 0 21 25 23 24 2 31 -2 31 -16z m690 -14 c-1 -28 -2 -30 -11 -15 -6 10 -8
25 -5 33 9 24 16 16 16 -18z m340 12 c0 -5 -7 -7 -15 -4 -8 4 -12 10 -9 15 6
11 24 2 24 -11z m250 -38 c76 -80 112 -135 113 -174 2 -30 -1 -33 -30 -36 -20
-2 -53 8 -92 27 -33 17 -67 31 -76 31 -24 0 -27 22 -15 91 18 109 21 119 33
119 6 0 36 -26 67 -58z m-2610 17 c0 -5 -11 -16 -26 -25 -19 -13 -28 -14 -36
-6 -17 17 30 66 49 51 7 -6 13 -15 13 -20z m1208 -3 c3 -22 0 -27 -12 -23 -8
3 -17 1 -20 -6 -2 -7 -5 -4 -5 6 -1 10 -5 15 -11 12 -5 -3 -10 2 -10 13 0 24
6 29 33 28 17 -1 23 -8 25 -30z m-138 17 c0 -5 3 -19 5 -33 5 -22 4 -22 -4 -5
-9 19 -10 19 -10 -2 -2 -45 -31 -18 -31 28 0 12 7 19 20 19 11 0 20 -3 20 -7z
m910 -23 c0 -16 -4 -30 -9 -30 -10 0 -22 40 -15 52 11 18 24 6 24 -22z m473
15 c-3 -9 -8 -14 -10 -11 -3 3 -2 9 2 15 9 16 15 13 8 -4z m-1556 -27 c-3 -7
-5 -2 -5 12 0 14 2 19 5 13 2 -7 2 -19 0 -25z m52 20 c-1 -7 -5 -24 -9 -38 -8
-25 -8 -25 -10 5 -1 26 -3 27 -10 10 -8 -18 -9 -17 -9 8 -1 21 4 27 19 27 11
0 20 -6 19 -12z m971 -23 c0 -24 -5 -35 -15 -35 -10 0 -15 10 -15 29 0 25 6
33 28 40 1 1 2 -15 2 -34z m-1163 -12 c-3 -10 -5 -4 -5 12 0 17 2 24 5 18 2
-7 2 -21 0 -30z m-578 0 c11 -23 10 -29 -5 -40 -28 -20 -50 -15 -63 14 -11 23
-10 29 5 40 28 20 50 15 63 -14z m1674 0 c6 -32 1 -43 -17 -43 -18 0 -28 53
-13 62 20 13 24 9 30 -19z m-1178 -14 c3 -4 -8 -3 -25 2 -16 6 -32 15 -35 20
-3 4 8 3 25 -2 16 -6 32 -15 35 -20z m102 -1 c-3 -7 -5 -2 -5 12 0 14 2 19 5
13 2 -7 2 -19 0 -25z m20 0 c-3 -8 -6 -5 -6 6 -1 11 2 17 5 13 3 -3 4 -12 1
-19z m973 -13 c0 -28 -4 -35 -20 -35 -15 0 -20 7 -20 28 0 32 7 42 27 42 8 0
13 -12 13 -35z m-95 -21 c0 -22 -5 -30 -20 -32 -16 -2 -21 3 -23 24 -2 27 14
47 33 41 6 -2 10 -17 10 -33z m-1621 4 c18 -25 21 -53 6 -43 -5 3 -10 2 -10
-3 0 -5 -10 -9 -22 -8 -27 1 -37 38 -18 62 17 19 26 18 44 -8z m366 -7 c0 -26
-14 -41 -40 -41 -13 0 -19 54 -7 62 27 17 47 8 47 -21z m1152 -11 c3 -16 1
-30 -3 -30 -4 0 -14 -3 -22 -6 -10 -4 -16 4 -19 25 -5 35 -2 41 23 41 11 0 18
-10 21 -30z m-112 -15 c0 -28 -4 -35 -20 -35 -11 0 -20 6 -20 14 0 8 -3 21 -6
29 -4 11 2 17 18 20 13 2 24 5 26 6 1 0 2 -15 2 -34z m-1134 -11 c5 -26 3 -39
-7 -45 -22 -14 -26 -11 -40 22 -11 28 -10 33 6 45 28 21 33 18 41 -22z m1691
-1 c-3 -10 -5 -4 -5 12 0 17 2 24 5 18 2 -7 2 -21 0 -30z m909 1 c-5 -13 -10
-14 -18 -6 -6 6 -8 18 -4 28 5 13 10 14 18 6 6 -6 8 -18 4 -28z m-1596 12 c0
-11 -19 -15 -25 -6 -3 5 1 10 9 10 9 0 16 -2 16 -4z m650 -26 c0 -16 -4 -30
-10 -30 -5 0 -10 14 -10 30 0 17 5 30 10 30 6 0 10 -13 10 -30z m-1735 -38 c5
-19 2 -30 -11 -39 -26 -19 -32 -17 -49 17 -20 39 -19 45 8 57 27 13 43 2 52
-35z m1685 19 c0 -16 -6 -31 -15 -35 -11 -4 -15 2 -15 23 0 15 3 31 7 34 14
15 23 6 23 -22z m-70 -20 c0 -26 -15 -49 -25 -39 -11 10 -12 57 -2 62 23 9 27
6 27 -23z m-92 -26 c-1 -13 -8 -27 -15 -29 -16 -7 -17 6 -1 22 9 9 9 12 0 12
-7 0 -12 5 -12 10 0 6 7 10 15 10 10 0 14 -9 13 -25z m-1638 -9 c13 -24 6 -70
-8 -50 -4 5 -20 18 -36 28 -28 18 -29 19 -11 32 27 20 40 17 55 -10z m300 5
c0 -10 -6 -24 -14 -30 -11 -9 -15 -7 -19 11 -7 26 -1 38 19 38 8 0 14 -8 14
-19z m1250 -4 c0 -7 -9 -13 -20 -14 -16 -1 -17 1 -7 12 15 18 27 19 27 2z
m-1322 -54 c-4 -46 -23 -54 -32 -12 -7 35 -1 49 20 49 11 0 14 -9 12 -37z
m1619 -10 c-3 -10 -5 -4 -5 12 0 17 2 24 5 18 2 -7 2 -21 0 -30z m-1891 5 c14
-7 42 -37 62 -68 l35 -55 -23 -65 c-46 -134 -133 -251 -198 -266 -15 -4 -36
-13 -47 -20 -72 -50 -127 46 -90 158 22 70 73 151 133 214 27 27 57 65 67 82
22 36 24 37 61 20z m1844 -18 c0 -16 -4 -30 -10 -30 -11 0 -14 43 -3 53 11 12
13 8 13 -23z m-1639 -17 c22 -59 -8 -82 -37 -28 -17 31 -17 37 -4 45 23 15 30
12 41 -17z m1567 -8 c1 -18 -3 -25 -16 -24 -10 0 -12 3 -5 6 9 3 10 10 3 24
-8 14 -7 19 2 19 8 0 15 -11 16 -25z m-91 -21 c-3 -3 -12 -4 -19 -1 -8 3 -5 6
6 6 11 1 17 -2 13 -5z m691 -38 c47 -24 100 -71 91 -81 -6 -6 -136 48 -150 62
-9 9 -3 43 7 43 3 0 26 -11 52 -24z m-2139 -88 c0 -31 -1 -31 -10 -10 -5 13
-7 28 -3 33 10 16 14 9 13 -23z m2644 -75 c28 -6 38 -23 13 -23 -24 0 -76 22
-76 32 0 6 8 7 18 3 9 -3 29 -9 45 -12z m-916 -75 c-2 -13 -4 -5 -4 17 -1 22
1 32 4 23 2 -10 2 -28 0 -40z m-2758 -14 c-72 -77 -77 -79 -329 -117 -440 -67
-388 -64 -445 -32 -27 15 -54 31 -59 36 -11 10 -4 12 239 49 110 17 281 43
380 59 99 16 193 29 209 30 l29 1 -24 -26z m3427 -79 l49 -25 -47 6 c-36 5
-51 3 -63 -9 -9 -9 -16 -19 -15 -22 0 -8 -4 -8 -28 -1 -18 6 -21 11 -12 21 8
10 7 16 -7 25 -16 10 -15 11 6 6 13 -3 30 1 38 10 19 19 21 18 79 -11z m-481
-55 c3 -5 1 -10 -4 -10 -6 0 -11 5 -11 10 0 6 2 10 4 10 3 0 8 -4 11 -10z
m-3705 -79 c2 -1 -1 -6 -8 -13 -20 -20 -14 -33 7 -14 18 16 19 16 23 -7 3 -16
-3 -31 -19 -47 -12 -12 -23 -17 -23 -10 0 6 -5 8 -12 4 -8 -5 -9 -2 -5 9 4 11
-1 20 -13 27 -22 12 -27 46 -8 52 10 4 35 3 58 -1z m62 -13 c-7 -7 -12 -8 -12
-2 0 14 12 26 19 19 2 -3 -1 -11 -7 -17z m-192 -12 c-1 -4 12 -20 29 -36 l32
-27 -26 2 c-33 4 -90 62 -66 68 21 6 33 3 31 -7z m-46 -22 c26 -25 19 -43 -19
-50 -44 -8 -54 0 -31 25 10 11 15 25 11 30 -10 17 22 13 39 -5z"/>
<path d="M1215 3250 c10 -11 23 -20 28 -20 6 0 2 9 -8 20 -10 11 -23 20 -28
20 -6 0 -2 -9 8 -20z"/>
<path d="M4196 3284 c-11 -7 -17 -16 -15 -19 3 -3 14 2 25 9 10 8 17 17 14 19
-3 3 -14 -1 -24 -9z"/>
<path d="M2578 2893 c-53 -33 -62 -94 -22 -142 32 -39 85 -42 126 -8 26 21 51
90 32 86 -19 -3 -28 2 -16 9 18 12 4 40 -29 57 -36 19 -57 19 -91 -2z m82 -63
c0 -5 -2 -10 -4 -10 -3 0 -8 5 -11 10 -3 6 -1 10 4 10 6 0 11 -4 11 -10z"/>
<path d="M4820 2540 c0 -11 4 -20 9 -20 5 0 7 9 4 20 -3 11 -7 20 -9 20 -2 0
-4 -9 -4 -20z"/>
<path d="M4826 2494 c-4 -9 -4 -19 -1 -22 2 -3 7 3 11 12 4 9 4 19 1 22 -2 3
-7 -3 -11 -12z"/>
<path d="M4768 2435 c-3 -14 -2 -25 2 -25 4 0 10 11 12 25 3 14 2 25 -2 25 -4
0 -10 -11 -12 -25z"/>
<path d="M3003 2010 c0 -30 2 -43 4 -27 2 15 2 39 0 55 -2 15 -4 2 -4 -28z"/>
<path d="M3586 1954 c-5 -13 -3 -14 6 -6 7 6 29 12 48 15 34 4 34 4 -6 5 -31
2 -44 -2 -48 -14z"/>
<path d="M3478 1943 c-10 -2 -18 -12 -18 -21 0 -12 3 -13 12 -4 7 7 27 12 44
12 18 0 36 5 39 10 6 10 -43 12 -77 3z"/>
<path d="M3230 1825 c0 -8 5 -15 10 -15 6 0 10 7 10 15 0 8 -4 15 -10 15 -5 0
-10 -7 -10 -15z"/>
<path d="M2942 1795 c0 -16 2 -22 5 -12 2 9 2 23 0 30 -3 6 -5 -1 -5 -18z"/>
<path d="M4430 1696 c0 -18 4 -24 15 -20 8 4 15 8 15 11 0 2 -7 11 -15 19 -13
14 -15 13 -15 -10z"/>
<path d="M4440 1600 c0 -5 7 -10 16 -10 8 0 12 5 9 10 -3 6 -10 10 -16 10 -5
0 -9 -4 -9 -10z"/>
<path d="M4161 1393 c-7 -26 -15 -56 -18 -65 -2 -10 -9 -18 -15 -18 -6 0 1 -9
16 -21 21 -17 29 -19 41 -9 21 17 19 30 -5 30 -22 0 -23 1 -14 24 8 21 30 20
42 0 7 -13 12 -6 21 29 6 25 11 48 11 51 0 10 -23 2 -38 -12 -8 -7 -17 -10
-21 -6 -3 4 0 9 7 11 6 3 12 9 12 14 0 6 -4 8 -9 5 -5 -4 -11 -1 -13 4 -2 6
-9 -11 -17 -37z"/>
<path d="M4200 1281 c-14 -27 -13 -31 10 -31 10 0 24 9 29 19 9 16 8 18 -11
13 -14 -3 -19 -1 -14 6 4 7 5 12 2 12 -3 0 -10 -9 -16 -19z"/>
<path d="M628 280 c-56 -10 -68 -16 -68 -37 0 -13 11 -14 73 -8 86 9 117 19
117 40 0 17 -41 18 -122 5z"/>
<path d="M2102 4955 c3 -44 10 -73 24 -92 18 -25 20 -39 16 -123 -3 -69 -9
-100 -21 -114 -25 -28 -23 -162 4 -201 17 -26 19 -44 16 -125 -2 -57 -8 -98
-15 -103 -6 -4 14 -4 44 -1 30 4 57 8 59 10 2 2 5 27 7 56 3 42 1 47 -5 23
l-9 -30 -1 38 c0 20 4 37 9 37 6 0 10 14 10 30 0 17 7 42 16 55 9 14 14 32 10
40 -3 9 -2 13 4 10 6 -4 10 13 9 42 -1 59 -12 99 -26 96 -6 -1 -14 4 -17 13
-4 10 -2 13 7 8 9 -5 9 -4 0 6 -7 8 -10 31 -8 59 4 35 3 40 -4 21 -7 -19 -9
-11 -10 40 0 45 2 60 9 50 8 -12 10 -12 10 5 0 11 7 28 14 38 10 12 12 37 9
85 -8 98 -22 112 -23 21 0 -83 -4 -93 -30 -79 -11 6 -24 4 -38 -6 -15 -10 -23
-11 -28 -3 -5 8 -3 9 6 4 9 -5 11 -4 6 4 -4 6 -12 8 -18 5 -6 -4 -8 2 -3 17 5
19 4 21 -4 9 -8 -11 -11 2 -11 53 0 42 -4 67 -11 67 -8 0 -10 -21 -7 -65z
m144 -103 c-17 -16 -18 -16 -5 5 7 12 15 20 18 17 3 -2 -3 -12 -13 -22z m-38
-109 c-3 -65 -6 -78 -20 -81 -16 -3 -18 5 -18 61 0 75 6 97 26 97 12 0 14 -15
12 -77z m-51 -25 c-2 -13 -4 -3 -4 22 0 25 2 35 4 23 2 -13 2 -33 0 -45z m36
-114 c37 9 47 -11 47 -96 0 -80 0 -80 -24 -74 -14 3 -36 2 -50 -4 -21 -8 -27
-6 -37 11 -10 20 -7 96 6 149 5 19 4 22 -4 10 -6 -8 -11 -10 -11 -4 0 19 12
24 32 13 11 -6 29 -8 41 -5z m64 -26 c-3 -8 -6 -5 -6 6 -1 11 2 17 5 13 3 -3
4 -12 1 -19z m-49 -275 c-3 -65 -6 -78 -20 -81 -15 -3 -18 4 -19 45 0 36 -3
43 -9 28 -7 -17 -9 -14 -9 13 -1 20 3 31 9 27 6 -3 10 2 10 13 0 22 8 32 27
32 11 0 13 -17 11 -77z"/>
<path d="M2130 4461 c0 -6 4 -13 10 -16 6 -3 7 1 4 9 -7 18 -14 21 -14 7z"/>
<path d="M3330 4605 c0 -270 3 -415 10 -415 7 0 10 145 10 415 0 270 -3 415
-10 415 -7 0 -10 -145 -10 -415z"/>
<path d="M4370 5004 c0 -8 5 -12 10 -9 6 3 10 10 10 16 0 5 -4 9 -10 9 -5 0
-10 -7 -10 -16z"/>
<path d="M2272 4965 c0 -16 2 -22 5 -12 2 9 2 23 0 30 -3 6 -5 -1 -5 -18z"/>
<path d="M3824 4595 c11 -8 30 -15 42 -15 12 0 37 -2 55 -5 l34 -5 -30 14
c-16 7 -50 16 -75 20 -41 5 -43 5 -26 -9z"/>
<path d="M4544 4488 c17 -28 36 -30 36 -4 0 19 -5 24 -24 22 -19 -1 -21 -4
-12 -18z"/>
<path d="M4946 4317 c3 -10 9 -15 12 -12 3 3 0 11 -7 18 -10 9 -11 8 -5 -6z"/>
<path d="M4780 4316 c0 -2 7 -6 15 -10 8 -3 15 -1 15 4 0 6 -7 10 -15 10 -8 0
-15 -2 -15 -4z"/>
<path d="M3373 4214 c-3 -8 -3 -18 1 -21 3 -4 6 -1 6 5 0 22 40 13 50 -10 5
-13 9 -16 9 -8 1 22 -11 36 -37 43 -15 3 -25 0 -29 -9z"/>
<path d="M4971 4186 c-8 -10 -9 -16 -1 -21 5 -3 10 -1 10 6 0 7 2 10 4 8 3 -3
1 -21 -4 -42 -4 -20 -4 -39 0 -42 4 -2 8 -16 8 -30 0 -13 -4 -22 -9 -19 -8 5
-31 78 -32 102 0 14 -13 16 -21 3 -8 -13 30 -126 42 -124 11 3 11 -15 -1 -34
-4 -6 -3 -14 2 -18 6 -3 8 -12 5 -19 -3 -7 2 -19 11 -26 13 -11 15 -9 15 12 0
13 -6 30 -12 37 -10 11 -10 14 0 18 8 3 12 34 12 104 0 97 -6 113 -29 85z"/>
<path d="M4852 4178 c3 -7 13 -15 23 -17 17 -3 17 -2 3 13 -20 19 -31 21 -26
4z"/>
<path d="M80 4095 c-8 -9 -8 -15 -2 -15 12 0 26 19 19 26 -2 2 -10 -2 -17 -11z"/>
<path d="M4890 4071 c0 -6 5 -13 10 -16 6 -3 10 1 10 9 0 9 -4 16 -10 16 -5 0
-10 -4 -10 -9z"/>
<path d="M3970 4056 c0 -8 7 -17 16 -20 26 -10 94 -7 94 4 0 13 -11 16 -67 24
-33 5 -43 3 -43 -8z"/>
<path d="M55 4040 c3 -5 11 -10 16 -10 6 0 7 5 4 10 -3 6 -11 10 -16 10 -6 0
-7 -4 -4 -10z"/>
<path d="M2243 4021 c-8 -20 -17 -25 -44 -25 -25 -1 -33 -5 -31 -16 1 -8 -9
-2 -23 14 -32 35 -43 29 -15 -7 14 -18 19 -34 14 -51 -4 -19 -2 -26 9 -26 8 0
17 9 20 20 8 31 37 25 38 -7 2 -24 2 -25 6 -5 2 12 9 22 15 22 6 0 8 9 5 20
-3 11 0 23 5 27 7 4 8 1 3 -8 -5 -10 -3 -9 9 2 13 12 14 21 7 40 l-9 24 -9
-24z"/>
<path d="M3330 3972 c0 -29 4 -52 9 -52 8 0 3 90 -5 99 -2 2 -4 -19 -4 -47z"/>
<path d="M4831 3996 c-1 -10 13 -32 31 -49 18 -17 29 -23 25 -14 -3 9 -2 17 4
17 6 0 7 5 4 10 -4 6 -11 8 -16 5 -5 -4 -9 3 -9 14 0 11 -5 23 -11 27 -8 4 -9
0 -4 -15 9 -28 -3 -27 -15 2 -7 19 -9 19 -9 3z"/>
<path d="M3 3960 c0 -25 2 -35 4 -22 2 12 2 32 0 45 -2 12 -4 2 -4 -23z"/>
<path d="M4848 3885 c-6 -28 1 -38 19 -27 18 12 20 46 2 50 -11 2 -18 -6 -21
-23z"/>
<path d="M4983 3888 c-6 -7 -13 -22 -17 -32 -3 -10 -9 -16 -13 -12 -3 3 -13 0
-22 -8 -9 -8 -25 -16 -36 -18 -12 -2 -21 -13 -23 -26 -2 -12 -7 -22 -11 -22
-4 0 -6 13 -3 29 4 26 2 29 -18 24 -12 -3 -17 -9 -12 -12 5 -3 11 -15 13 -26
5 -22 48 -37 67 -22 8 6 12 5 12 -4 0 -19 -15 -41 -26 -40 -8 1 -9 -4 -5 -29
0 -5 8 -7 17 -3 14 5 15 3 5 -15 -13 -24 -14 -43 -3 -41 20 3 32 -2 32 -16 0
-8 5 -15 11 -15 5 0 7 -6 4 -12 -3 -7 0 -5 7 4 11 15 13 15 25 0 11 -14 13 -4
12 66 -1 45 -6 82 -10 82 -5 0 -9 -5 -9 -12 0 -9 -3 -9 -11 -1 -15 15 -3 34
16 26 12 -4 15 8 15 71 0 42 -2 76 -4 76 -2 0 -8 -6 -13 -12z"/>
<path d="M4 3849 c7 -45 20 -68 32 -56 4 4 1 13 -5 21 -7 8 -11 27 -9 42 2 17
-2 29 -11 32 -11 4 -13 -4 -7 -39z"/>
<path d="M34 3694 c3 -9 6 -18 6 -20 0 -3 4 -3 10 1 11 7 2 35 -12 35 -6 0 -7
-7 -4 -16z"/>
<path d="M4810 3686 c0 -8 4 -17 9 -20 10 -7 23 19 14 28 -11 11 -23 6 -23 -8z"/>
<path d="M4860 3691 c0 -6 5 -13 10 -16 6 -3 10 1 10 9 0 9 -4 16 -10 16 -5 0
-10 -4 -10 -9z"/>
<path d="M2272 3615 c0 -16 2 -22 5 -12 2 9 2 23 0 30 -3 6 -5 -1 -5 -18z"/>
<path d="M60 3618 c0 -7 5 -20 10 -28 8 -12 10 -11 10 7 0 12 -4 25 -10 28 -5
3 -10 0 -10 -7z"/>
<path d="M470 3598 c0 -7 5 -20 10 -28 8 -12 10 -9 10 13 0 15 -4 27 -10 27
-5 0 -10 -6 -10 -12z"/>
<path d="M4992 3530 c0 -14 2 -19 5 -12 2 6 2 18 0 25 -3 6 -5 1 -5 -13z"/>
<path d="M80 3511 c0 -6 5 -13 10 -16 6 -3 10 1 10 9 0 9 -4 16 -10 16 -5 0
-10 -4 -10 -9z"/>
<path d="M4814 3462 c-18 -14 -18 -14 2 -8 17 5 23 1 27 -21 10 -42 24 -60 37
-47 9 9 9 14 1 18 -6 4 -11 15 -11 24 0 10 -8 25 -18 33 -17 14 -21 14 -38 1z"/>
<path d="M440 3421 c0 -5 5 -13 10 -16 6 -3 10 -2 10 4 0 5 -4 13 -10 16 -5 3
-10 2 -10 -4z"/>
<path d="M4921 3400 c14 -31 19 -36 19 -24 0 6 -7 19 -16 30 -14 18 -14 18 -3
-6z"/>
<path d="M4790 3370 c-6 -24 -5 -69 1 -85 7 -17 8 -15 8 9 1 33 9 30 16 -5 4
-23 38 -59 55 -59 7 0 7 22 0 40 -3 8 -7 24 -8 38 -1 6 -8 12 -16 12 -8 0 -24
12 -35 28 -11 15 -21 25 -21 22z"/>
<path d="M4880 3361 c0 -6 5 -13 10 -16 6 -3 10 1 10 9 0 9 -4 16 -10 16 -5 0
-10 -4 -10 -9z"/>
<path d="M4937 3313 c-12 -11 -8 -23 8 -23 8 0 15 7 15 15 0 16 -12 20 -23 8z"/>
<path d="M220 3280 c0 -5 5 -10 10 -10 6 0 10 5 10 10 0 6 -4 10 -10 10 -5 0
-10 -4 -10 -10z"/>
<path d="M4903 3276 c-10 -11 -9 -15 2 -20 8 -3 17 -1 20 4 3 5 13 7 23 4 14
-5 14 -3 -2 10 -24 19 -27 19 -43 2z"/>
<path d="M4973 3269 c3 -9 1 -21 -4 -26 -7 -7 -4 -17 8 -29 17 -17 18 -17 21
4 2 12 -4 32 -14 44 -9 13 -14 16 -11 7z"/>
<path d="M4887 3200 c-7 -26 5 -33 28 -16 18 13 18 14 -2 24 -17 10 -22 8 -26
-8z"/>
<path d="M715 3200 c-3 -5 1 -10 10 -10 9 0 13 5 10 10 -3 6 -8 10 -10 10 -2
0 -7 -4 -10 -10z"/>
<path d="M4847 3193 c-4 -3 -7 -11 -7 -17 0 -6 5 -5 12 2 6 6 9 14 7 17 -3 3
-9 2 -12 -2z"/>
<path d="M4970 3192 c0 -12 19 -26 26 -19 2 2 -2 10 -11 17 -9 8 -15 8 -15 2z"/>
<path d="M4815 3180 c-3 -5 -1 -10 4 -10 6 0 11 5 11 10 0 6 -2 10 -4 10 -3 0
-8 -4 -11 -10z"/>
<path d="M980 3176 c0 -2 8 -10 18 -17 15 -13 16 -12 3 4 -13 16 -21 21 -21
13z"/>
<path d="M4933 3145 c-19 -21 -16 -25 15 -25 20 0 23 -3 13 -9 -12 -8 -10 -15
11 -39 l25 -30 2 59 c1 35 -3 59 -9 59 -5 0 -10 -5 -10 -12 0 -9 -3 -9 -12 0
-15 15 -20 15 -35 -3z"/>
<path d="M564 3139 c-12 -20 11 -28 93 -30 88 -3 110 4 79 27 -24 17 -161 20
-172 3z"/>
<path d="M4170 3090 c0 -5 5 -10 10 -10 6 0 10 5 10 10 0 6 -4 10 -10 10 -5 0
-10 -4 -10 -10z"/>
<path d="M4835 3070 c3 -5 8 -10 11 -10 2 0 4 5 4 10 0 6 -5 10 -11 10 -5 0
-7 -4 -4 -10z"/>
<path d="M4075 3020 c3 -5 8 -10 11 -10 2 0 4 5 4 10 0 6 -5 10 -11 10 -5 0
-7 -4 -4 -10z"/>
<path d="M4125 3020 c3 -5 8 -10 11 -10 2 0 4 5 4 10 0 6 -5 10 -11 10 -5 0
-7 -4 -4 -10z"/>
<path d="M280 2949 c0 -5 5 -7 10 -4 6 3 10 8 10 11 0 2 -4 4 -10 4 -5 0 -10
-5 -10 -11z"/>
<path d="M4075 2950 c3 -5 8 -10 11 -10 2 0 4 5 4 10 0 6 -5 10 -11 10 -5 0
-7 -4 -4 -10z"/>
<path d="M4750 2950 c0 -6 7 -10 15 -10 8 0 15 2 15 4 0 2 -7 6 -15 10 -8 3
-15 1 -15 -4z"/>
<path d="M320 2924 c0 -11 34 -33 50 -33 10 -1 6 6 -10 19 -26 20 -40 25 -40
14z"/>
<path d="M4360 2920 c-9 -6 -10 -10 -3 -10 6 0 15 5 18 10 8 12 4 12 -15 0z"/>
<path d="M387 2905 c3 -8 9 -12 14 -9 12 7 11 11 -5 17 -10 4 -13 1 -9 -8z"/>
<path d="M3844 2875 c-22 -22 -25 -32 -21 -63 12 -71 78 -99 130 -54 25 22 23
83 -5 110 -39 35 -73 38 -104 7z m96 -45 c0 -5 -4 -10 -10 -10 -5 0 -10 5 -10
10 0 6 5 10 10 10 6 0 10 -4 10 -10z"/>
<path d="M275 2850 c-4 -6 -10 -8 -15 -5 -4 3 -7 -3 -6 -12 4 -25 27 -22 37 5
8 22 -4 31 -16 12z"/>
<path d="M4420 2835 c-11 -13 -10 -14 4 -9 9 3 16 10 16 15 0 13 -6 11 -20 -6z"/>
<path d="M4120 2801 c0 -6 5 -13 10 -16 6 -3 10 1 10 9 0 9 -4 16 -10 16 -5 0
-10 -4 -10 -9z"/>
<path d="M4170 2800 c0 -5 5 -10 10 -10 6 0 10 5 10 10 0 6 -4 10 -10 10 -5 0
-10 -4 -10 -10z"/>
<path d="M4347 2774 c6 -15 23 -19 23 -5 0 5 -7 11 -14 14 -10 4 -13 1 -9 -9z"/>
<path d="M274 2759 c-3 -6 -1 -16 5 -22 9 -9 14 -8 21 3 9 15 4 30 -10 30 -5
0 -12 -5 -16 -11z"/>
<path d="M4277 2764 c7 -3 9 -13 6 -22 -4 -15 -3 -15 6 -2 15 22 14 30 -6 29
-10 0 -13 -3 -6 -5z"/>
<path d="M4120 2731 c0 -6 5 -13 10 -16 6 -3 10 1 10 9 0 9 -4 16 -10 16 -5 0
-10 -4 -10 -9z"/>
<path d="M4170 2730 c0 -5 5 -10 10 -10 6 0 10 5 10 10 0 6 -4 10 -10 10 -5 0
-10 -4 -10 -10z"/>
<path d="M4323 2715 c-17 -19 -16 -25 2 -25 8 0 19 9 25 20 13 24 -7 28 -27 5z"/>
<path d="M4120 2656 c0 -8 5 -18 10 -21 6 -3 10 3 10 14 0 12 -4 21 -10 21 -5
0 -10 -6 -10 -14z"/>
<path d="M4081 2644 c0 -11 3 -14 6 -6 3 7 2 16 -1 19 -3 4 -6 -2 -5 -13z"/>
<path d="M4325 2620 c10 -11 19 -20 21 -20 1 0 0 9 -3 20 -3 11 -12 20 -21 20
-13 0 -12 -3 3 -20z"/>
<path d="M0 2561 c0 -24 5 -34 20 -38 11 -3 20 -14 20 -24 0 -24 15 -32 30
-14 14 17 -7 70 -28 70 -8 0 -20 9 -28 19 -13 19 -14 18 -14 -13z"/>
<path d="M4940 2549 c0 -5 5 -7 10 -4 6 3 10 8 10 11 0 2 -4 4 -10 4 -5 0 -10
-5 -10 -11z"/>
<path d="M4443 2536 c4 -10 0 -12 -14 -9 -14 4 -19 0 -19 -14 0 -15 8 -19 35
-20 38 -1 47 17 21 43 -18 18 -30 18 -23 0z"/>
<path d="M285 2430 c-3 -5 -1 -10 4 -10 6 0 11 5 11 10 0 6 -2 10 -4 10 -3 0
-8 -4 -11 -10z"/>
<path d="M4384 2405 c-9 -22 1 -29 15 -11 8 10 9 16 1 21 -5 3 -13 -1 -16 -10z"/>
<path d="M98 2383 c7 -3 16 -2 19 1 4 3 -2 6 -13 5 -11 0 -14 -3 -6 -6z"/>
<path d="M17 2349 c-22 -13 -22 -33 0 -50 13 -11 17 -11 20 -1 3 6 8 10 13 7
4 -3 6 4 3 15 -3 11 0 20 6 20 6 0 11 5 11 10 0 13 -30 12 -53 -1z"/>
<path d="M550 2272 c0 -10 51 -24 59 -16 7 6 -2 12 -32 19 -16 4 -27 3 -27 -3z"/>
<path d="M0 2231 c0 -31 4 -41 20 -46 11 -3 20 -11 20 -16 0 -6 15 -9 33 -7
37 3 43 21 10 26 -26 4 -33 42 -8 42 8 0 15 -4 15 -9 0 -11 39 -3 57 12 26 19
12 28 -42 26 -34 -2 -56 -7 -59 -16 -3 -7 -12 -10 -20 -7 -8 3 -12 12 -9 20 3
8 0 14 -6 14 -6 0 -11 -17 -11 -39z"/>
<path d="M178 2253 c7 -3 16 -2 19 1 4 3 -2 6 -13 5 -11 0 -14 -3 -6 -6z"/>
<path d="M576 2185 c4 -8 10 -12 15 -9 11 6 2 24 -11 24 -5 0 -7 -7 -4 -15z"/>
<path d="M580 2130 c0 -5 5 -10 10 -10 6 0 10 5 10 10 0 6 -4 10 -10 10 -5 0
-10 -4 -10 -10z"/>
<path d="M48 2113 c10 -4 10 -8 0 -21 -12 -15 -11 -16 4 -3 19 14 15 32 -5 30
-8 0 -8 -2 1 -6z"/>
<path d="M363 2095 c-14 -11 -16 -18 -7 -32 17 -28 48 -23 52 8 4 32 -18 43
-45 24z"/>
<path d="M457 2103 c-9 -9 -8 -35 1 -51 10 -15 38 -6 46 15 11 27 -28 56 -47
36z"/>
<path d="M544 2095 c-8 -21 2 -45 19 -45 8 0 20 7 27 15 10 12 10 18 0 30 -7
8 -19 15 -27 15 -7 0 -16 -7 -19 -15z"/>
<path d="M740 2085 c0 -17 5 -25 13 -22 6 2 12 12 12 22 0 10 -6 20 -12 23 -8
2 -13 -6 -13 -23z"/>
<path d="M812 2088 c2 -15 10 -23 23 -23 30 0 27 39 -3 43 -20 3 -23 0 -20
-20z"/>
<path d="M904 2088 c1 -27 19 -34 35 -14 15 18 6 36 -18 36 -12 0 -18 -7 -17
-22z"/>
<path d="M32 2031 c-11 -7 -11 -9 2 -14 10 -4 16 -1 16 8 0 17 -1 17 -18 6z"/>
<path d="M256 2023 c-11 -11 -6 -73 6 -73 6 0 9 3 6 6 -4 3 -2 19 2 35 8 27 0
46 -14 32z"/>
<path d="M814 2009 c-4 -7 -2 -15 4 -17 7 -2 9 -8 6 -14 -4 -6 2 -8 12 -6 24
4 25 42 2 46 -9 2 -20 -3 -24 -9z"/>
<path d="M900 2011 c0 -6 4 -12 10 -16 5 -3 7 -12 3 -20 -3 -11 -1 -13 10 -9
18 6 30 32 21 45 -7 12 -44 12 -44 0z"/>
<path d="M365 1996 c-15 -11 -16 -16 -5 -35 7 -14 17 -20 27 -17 8 3 17 6 19
6 2 0 4 11 4 24 0 29 -22 39 -45 22z"/>
<path d="M454 1996 c-9 -24 4 -48 23 -44 12 2 18 12 18 28 0 29 -32 41 -41 16z"/>
<path d="M545 2000 c-11 -17 5 -51 23 -48 23 4 23 52 0 56 -9 2 -19 -2 -23 -8z"/>
<path d="M740 1986 c0 -19 4 -24 15 -19 18 6 16 34 -2 41 -8 2 -13 -6 -13 -22z"/>
<path d="M817 1914 c-12 -12 -8 -26 5 -18 8 5 9 2 5 -10 -5 -13 -2 -17 11 -14
21 4 23 42 2 46 -9 1 -19 0 -23 -4z"/>
<path d="M892 1908 c2 -6 12 -16 21 -22 13 -8 20 -7 27 4 12 20 3 30 -26 30
-15 0 -24 -5 -22 -12z"/>
<path d="M360 1895 c-16 -19 3 -45 31 -45 24 0 26 45 3 54 -21 8 -20 8 -34 -9z"/>
<path d="M462 1883 c4 -36 33 -39 33 -3 0 16 -6 26 -18 28 -15 3 -18 -2 -15
-25z"/>
<path d="M543 1894 c-3 -8 -1 -20 5 -26 16 -16 42 -2 42 22 0 24 -38 28 -47 4z"/>
<path d="M743 1890 c1 -11 7 -20 14 -20 7 0 13 9 13 20 0 11 -6 20 -14 20 -9
0 -14 -9 -13 -20z"/>
<path d="M243 1854 c-37 -16 -52 -34 -26 -34 22 0 78 36 66 42 -4 3 -22 -1
-40 -8z"/>
<path d="M51 1841 c-7 -5 -22 -6 -32 -4 -13 4 -19 0 -19 -12 0 -15 6 -16 37
-10 21 5 48 9 60 10 30 2 43 15 15 15 -11 0 -26 2 -34 5 -7 3 -19 1 -27 -4z"/>
<path d="M914 1814 c3 -9 6 -20 6 -25 0 -6 5 -7 10 -4 16 10 12 45 -6 45 -11
0 -14 -5 -10 -16z"/>
<path d="M740 1813 c0 -5 4 -15 10 -23 11 -18 25 -7 17 15 -6 15 -27 21 -27 8z"/>
<path d="M812 1803 c4 -22 43 -25 43 -3 0 8 -11 16 -23 18 -19 3 -23 0 -20
-15z"/>
<path d="M361 1797 c-17 -21 -3 -49 23 -45 15 2 21 10 21 28 0 28 -26 38 -44
17z"/>
<path d="M454 1796 c-8 -21 13 -46 32 -39 20 8 13 47 -9 51 -9 2 -20 -4 -23
-12z"/>
<path d="M548 1804 c-10 -9 3 -44 16 -44 18 0 35 21 29 36 -5 14 -34 19 -45 8z"/>
<path d="M833 1706 c2 -27 11 -34 23 -15 3 6 0 18 -9 26 -13 14 -15 13 -14
-11z"/>
<path d="M909 1717 c6 -8 8 -17 4 -20 -3 -4 1 -7 10 -7 10 0 17 8 17 20 0 14
-7 20 -21 20 -17 0 -19 -3 -10 -13z"/>
<path d="M546 1704 c-9 -23 19 -53 35 -37 15 15 7 47 -12 51 -9 2 -19 -5 -23
-14z"/>
<path d="M750 1700 c0 -19 3 -21 12 -12 9 9 9 15 0 24 -9 9 -12 7 -12 -12z"/>
<path d="M360 1695 c-11 -13 -11 -19 3 -32 21 -21 49 -9 45 19 -4 28 -30 35
-48 13z"/>
<path d="M450 1685 c0 -20 5 -25 25 -25 20 0 25 5 25 25 0 20 -5 25 -25 25
-20 0 -25 -5 -25 -25z"/>
<path d="M920 1621 c0 -12 5 -21 10 -21 6 0 10 6 10 14 0 8 -4 18 -10 21 -5 3
-10 -3 -10 -14z"/>
<path d="M833 1611 c1 -12 6 -20 12 -18 14 5 13 29 -2 34 -7 3 -11 -4 -10 -16z"/>
<path d="M455 1604 c-15 -15 -15 -19 -1 -32 20 -20 48 -8 44 20 -4 28 -21 33
-43 12z"/>
<path d="M559 1618 c-1 -1 -3 -13 -4 -25 -2 -17 3 -23 17 -23 14 0 19 6 16 22
-2 18 -25 38 -29 26z"/>
<path d="M353 1594 c-7 -20 22 -45 43 -37 8 3 14 16 14 29 0 19 -5 24 -25 24
-15 0 -28 -7 -32 -16z"/>
<path d="M917 1520 c3 -11 9 -20 14 -20 5 0 9 9 9 20 0 11 -6 20 -14 20 -9 0
-12 -7 -9 -20z"/>
<path d="M551 1516 c-11 -13 -10 -19 4 -32 19 -19 39 -7 33 22 -4 23 -22 28
-37 10z"/>
<path d="M454 1506 c-8 -21 13 -46 32 -39 20 8 13 47 -9 51 -9 2 -20 -4 -23
-12z"/>
<path d="M751 1504 c0 -11 3 -14 6 -6 3 7 2 16 -1 19 -3 4 -6 -2 -5 -13z"/>
<path d="M836 1503 c-6 -14 -5 -15 5 -6 7 7 10 15 7 18 -3 3 -9 -2 -12 -12z"/>
<path d="M360 1484 c0 -21 4 -25 23 -22 14 2 23 11 25 26 3 18 -1 22 -22 22
-21 0 -26 -5 -26 -26z"/>
<path d="M904 1428 c4 -27 31 -36 40 -13 8 22 -1 35 -25 35 -14 0 -18 -6 -15
-22z"/>
<path d="M743 1416 c2 -27 11 -34 23 -15 3 6 0 18 -9 26 -13 14 -15 13 -14
-11z"/>
<path d="M830 1420 c0 -13 5 -20 13 -17 6 2 12 10 12 17 0 7 -6 15 -12 18 -8
2 -13 -5 -13 -18z"/>
<path d="M560 1399 c0 -20 4 -29 13 -27 18 7 20 45 3 51 -12 5 -16 -1 -16 -24z"/>
<path d="M466 1411 c-4 -5 -2 -12 4 -16 6 -4 8 -11 5 -16 -4 -5 1 -9 10 -9 11
0 15 7 13 22 -3 23 -23 35 -32 19z"/>
<path d="M360 1385 c0 -22 4 -26 23 -23 14 2 22 10 22 23 0 13 -8 21 -22 23
-19 3 -23 -1 -23 -23z"/>
<path d="M901 1347 c-8 -10 -7 -19 4 -33 15 -19 15 -19 30 0 11 14 12 23 4 33
-6 7 -15 13 -19 13 -4 0 -13 -6 -19 -13z"/>
<path d="M810 1341 c0 -5 5 -13 10 -16 6 -4 7 -11 4 -17 -4 -6 1 -8 12 -6 28
5 25 42 -3 46 -13 2 -23 -1 -23 -7z"/>
<path d="M745 1315 c0 -14 5 -23 10 -22 6 2 10 12 10 22 0 10 -4 20 -10 22 -5
2 -10 -8 -10 -22z"/>
<path d="M558 1305 c-3 -14 -2 -27 1 -30 13 -8 33 13 29 30 -5 29 -25 29 -30
0z"/>
<path d="M366 1304 c-8 -8 -13 -21 -9 -30 8 -22 47 -13 51 12 4 27 -22 38 -42
18z"/>
<path d="M456 1311 c-10 -16 5 -41 26 -41 14 0 19 6 16 22 -3 24 -32 36 -42
19z"/>
<path d="M221 1202 c0 -8 -6 -10 -13 -6 -7 4 -5 -1 4 -11 13 -14 14 -23 6 -41
-6 -12 -8 -30 -4 -39 5 -15 8 -15 21 -1 17 16 20 47 6 62 -5 5 -11 18 -14 29
-3 11 -5 14 -6 7z"/>
<path d="M325 1030 c3 -5 8 -10 11 -10 2 0 4 5 4 10 0 6 -5 10 -11 10 -5 0 -7
-4 -4 -10z"/>
<path d="M1130 1014 c0 -8 5 -12 10 -9 6 3 10 10 10 16 0 5 -4 9 -10 9 -5 0
-10 -7 -10 -16z"/>
<path d="M1105 980 c3 -5 11 -10 16 -10 6 0 7 5 4 10 -3 6 -11 10 -16 10 -6 0
-7 -4 -4 -10z"/>
<path d="M1065 931 c-3 -2 -5 -13 -5 -23 0 -11 -4 -17 -9 -13 -14 8 -31 -29
-33 -72 -1 -21 -10 -52 -20 -69 -24 -41 -7 -54 21 -18 25 32 35 26 36 -21 0
-19 5 -35 10 -35 6 0 10 6 10 13 0 6 4 18 8 25 5 7 5 21 2 32 -4 12 -2 20 5
20 6 0 18 7 27 16 12 11 13 18 4 27 -6 6 -11 19 -11 29 0 10 -6 18 -14 18 -7
0 -16 11 -18 25 -3 13 -1 22 3 19 4 -2 12 4 18 14 8 14 6 18 -10 18 -11 0 -22
-2 -24 -5z"/>
<path d="M330 850 c0 -11 2 -20 4 -20 2 0 6 9 9 20 3 11 1 20 -4 20 -5 0 -9
-9 -9 -20z"/>
<path d="M920 640 c0 -5 7 -7 15 -4 8 4 15 8 15 10 0 2 -7 4 -15 4 -8 0 -15
-4 -15 -10z"/>
<path d="M1050 640 c0 -5 7 -10 15 -10 8 0 15 5 15 10 0 6 -7 10 -15 10 -8 0
-15 -4 -15 -10z"/>
<path d="M955 620 c-3 -5 -1 -10 4 -10 6 0 11 5 11 10 0 6 -2 10 -4 10 -3 0
-8 -4 -11 -10z"/>
<path d="M904 555 c-9 -21 -2 -26 13 -10 8 9 9 16 3 20 -6 3 -13 -1 -16 -10z"/>
<path d="M780 535 c-7 -8 -18 -15 -25 -15 -7 0 -15 -7 -19 -15 -11 -29 24 -11
53 28 16 21 8 23 -9 2z"/>
<path d="M930 529 c0 -5 5 -7 10 -4 6 3 10 8 10 11 0 2 -4 4 -10 4 -5 0 -10
-5 -10 -11z"/>
<path d="M1235 190 c-3 -5 -1 -10 4 -10 6 0 11 5 11 10 0 6 -2 10 -4 10 -3 0
-8 -4 -11 -10z"/>
<path d="M4200 180 c14 -9 99 -15 89 -6 -2 2 -26 6 -54 10 -34 4 -45 3 -35 -4z"/>
<path d="M4580 180 c-8 -5 -11 -12 -7 -16 4 -4 13 -2 19 4 15 15 7 24 -12 12z"/>
<path d="M1205 171 c-3 -5 -1 -12 5 -16 5 -3 10 1 10 9 0 18 -6 21 -15 7z"/>
<path d="M4670 155 c0 -8 4 -15 10 -15 5 0 7 7 4 15 -4 8 -8 15 -10 15 -2 0
-4 -7 -4 -15z"/>
<path d="M770 140 c0 -5 5 -10 10 -10 6 0 10 5 10 10 0 6 -4 10 -10 10 -5 0
-10 -4 -10 -10z"/>
<path d="M4430 75 c7 -8 16 -12 21 -9 13 8 1 24 -18 24 -13 0 -13 -3 -3 -15z"/>
<path d="M4878 37 c-41 -11 -55 -43 -15 -34 12 3 48 11 80 18 31 7 57 16 57
21 0 11 -76 8 -122 -5z"/>
</g>
</svg>
